<svg xmlns="http://www.w3.org/2000/svg" viewBox="0 0 1000 1000">
	<path d="M561.3 423.4H438.8v245h-91.9L500 852.2l153.1-183.8h-91.8z"/>
	<path d="M854.8 399.3c-28.4-75.4-101.1-129-186.4-129-19.6 0-38.6 2.8-56.5 8.1-48.6-78.4-135.4-130.6-234.4-130.6-150.2 0-272.4 120.2-275.6 269.6C47 449.2 10 508.7 10 576.6 10 678 92.3 760.3 193.8 760.3h137.8L280.5 699h-86.9c-67.5 0-122.4-54.8-122.4-122.5 0-58 40.3-106.6 94.5-119.3-1.8-11-2.7-22.3-2.7-33.8C163 305 259 209 377.4 209c96.8 0 178.7 64.2 205.2 152.4 23.6-18.7 53.3-29.9 85.7-29.9 70.9 0 129.4 53.6 137 122.5h.9c67.5 0 122.4 54.8 122.4 122.5 0 67.5-54.8 122.5-122.4 122.5h-86.9l-51.1 61.3H806c101.4 0 183.8-82.5 183.8-183.8.2-84.6-57.1-155.9-135-177.2z"/>
</svg>